<svg width="180" height="180" xmlns="http://www.w3.org/2000/svg" xmlns:xlink="http://www.w3.org/1999/xlink"><defs><path d="M63.968 0 0 36.523v39.49c0 36.01 15.82 67.995 63.968 83.907 47.805-15.912 63.968-47.896 63.968-83.908v-39.49L63.968 0Z" id="a"/><path d="M63.968 16.072 12.794 45.29v31.592c0 28.809 12.656 54.396 51.174 67.126 38.244-12.73 51.175-38.317 51.175-67.126V45.29L63.968 16.072Z" id="b"/><linearGradient x1="0%" y1="50%" x2="99.52%" y2="50%" id="d"><stop stop-color="#FF8547" offset="0%"/><stop stop-color="#FF6619" offset="100%"/></linearGradient></defs><g fill="none" fill-rule="evenodd"><g transform="translate(26.032 10)"><use fill="#EBECEC" xlink:href="#a"/><mask id="c" fill="#fff"><use xlink:href="#b"/></mask><use fill="#FFF" xlink:href="#b"/><path d="M63.968 16.072V149.73l36.215-21.767 22.904-36.81-3.268-52.212-55.85-22.87Z" fill="#EBECEC" mask="url(#c)"/></g><g stroke="#181818" stroke-width="6"><path d="M105.58 77.95c0-8.948-7.119-16.2-15.9-16.2s-15.9 7.252-15.9 16.2M73.78 77.95v21M105.58 77.95v21"/></g><path fill="#FF8547" d="M59.98 81.41h60v36h-60z"/><path d="M42.983 19.66C36.517 35.064 23.243 47.864 0 55.6V19.66Z" fill="url(#d)" transform="translate(59.98 61.75)"/><path fill="#FFF" d="M77.98 102.95h24v-6h-24z"/></g></svg>