<svg width="180" height="180" xmlns="http://www.w3.org/2000/svg" xmlns:xlink="http://www.w3.org/1999/xlink"><defs><linearGradient x1="0%" y1="50%" x2="99.52%" y2="50%" id="b"><stop stop-color="#FF8547" offset="0%"/><stop stop-color="#FF6619" offset="100%"/></linearGradient><path id="a" d="M39.535 0 0 12.639 42.132 29z"/></defs><g transform="translate(10.5 32)" fill="none" fill-rule="evenodd"><path fill="#F2F2F2" d="M20 7.568h129l-20 108H0z"/><path stroke="#DDDEDE" d="M26.577 38h100m-103 10h100m-102 10h100"/><circle fill="#C3C5C6" cx="49.152" cy="15" r="3.5"/><circle fill="#C3C5C6" cx="79.502" cy="15" r="3.5"/><circle fill="#C3C5C6" cx="109.502" cy="15" r="3.5"/><path d="M57.152 7.5a7.5 7.5 0 1 0-7.5 7.5m37.875-7.5a7.5 7.5 0 1 0-7.5 7.5m37.5-7.5a7.5 7.5 0 1 0-7.5 7.5" stroke="#FF6619" stroke-width="3"/><path fill="#DBDDDF" d="M149 8.068v107.5h-20.565z"/><g transform="translate(80.237 98)"><mask id="c" fill="#fff"><use xlink:href="#a"/></mask><use fill="#FF8547" xlink:href="#a"/><path d="M42.152-6.044c-6.297 15.001-19.224 27.466-41.859 35v-35h41.86Z" fill="url(#b)" mask="url(#c)"/></g><path stroke="#231815" stroke-linecap="round" d="m95.656 93.47 16 25"/></g></svg>