<?xml version="1.0" standalone="no"?><!DOCTYPE svg PUBLIC "-//W3C//DTD SVG 1.1//EN" "http://www.w3.org/Graphics/SVG/1.1/DTD/svg11.dtd"><svg t="1767162135479" class="icon" viewBox="0 0 1024 1024" version="1.1" xmlns="http://www.w3.org/2000/svg" p-id="4246" xmlns:xlink="http://www.w3.org/1999/xlink" width="200" height="200"><path d="M209.004106 514.001955c0-169.265298 137.234018-306.399218 306.399218-306.399218 1.401369 0 2.702639 0 4.104007 0.100098l0.200196-148.645161c-251.245357 0-454.944282 203.698925-454.944282 454.944281S268.362072 968.946237 519.707527 968.946237c114.912219 0 219.814663-42.541544 299.892864-112.810167L719.702835 742.425024c-54.152884 48.447312-125.722776 77.976149-204.199414 77.976149-169.365396 0-306.499316-137.13392-306.499315-306.399218z" fill="#ff6619" p-id="4247"></path><path d="M732.715543 297.991007l113.610948-101.198827C786.468035 125.12219 673.357576 71.369697 561.648485 62.861388v148.24477c66.464907 10.009775 125.822874 41.340371 171.067058 86.884849zM753.335679 707.090518l98.195895 106.303812c77.075269-85.783773 114.611926-186.582209 114.611926-297.490518 0-95.393157-41.540567-214.709677-94.592376-275.168719l-108.005474 93.291104c36.635777 50.549365 58.356989 112.609971 58.356989 179.87566-0.100098 73.271554-25.725122 140.537243-68.56696 193.188661z" fill="#ff6619" p-id="4248"></path></svg>