<?xml version="1.0" standalone="no"?><!DOCTYPE svg PUBLIC "-//W3C//DTD SVG 1.1//EN" "http://www.w3.org/Graphics/SVG/1.1/DTD/svg11.dtd"><svg t="1767332443791" class="icon" viewBox="0 0 1024 1024" version="1.1" xmlns="http://www.w3.org/2000/svg" p-id="15049" xmlns:xlink="http://www.w3.org/1999/xlink" width="200" height="200"><path d="M514 114c23.748 0 43 19.252 43 43s-19.252 43-43 43h-1c-172.865 0-313 140.135-313 313s140.135 313 313 313c147.297 0 270.83-101.746 304.15-238.79l0.23 0.043C820.19 566.223 838.2 550 860 550c23.748 0 43 19.252 43 43 0 3.941-0.53 7.759-1.523 11.385C860.168 780.706 701.917 912 513 912c-220.362 0-399-178.638-399-399s178.638-399 399-399l0.467 0.003c0.178-0.002 0.355-0.003 0.533-0.003z m41 436c0 23.748-19.252 43-43 43s-43-19.252-43-43v-0.031l0.002-0.445c0.14-15.879 7.169-50.155 18.398-81.859 17.183-48.513 43.018-91.71 79.446-124.587 37.132-33.511 84.001-53.477 139.817-60.455-7.21-15.85-4.296-35.179 8.743-48.217 16.792-16.793 44.018-16.793 60.81 0l59.398 59.397a42.886 42.886 0 0 1 9.074 13.337c7.338 15.756 4.607 35.043-8.193 48.171l-0.39 0.396-59.398 59.397c-16.792 16.793-44.019 16.793-60.811 0-12.298-12.298-15.59-30.192-9.875-45.485-33.631 5.87-60.641 18.428-81.555 37.303-24.55 22.156-43.221 53.375-56 89.456-4.808 13.573-8.47 27.016-10.97 39.293-0.894 4.385-1.584 8.37-2.05 11.671l-0.08 0.575c-0.123 0.898-0.221 1.688-0.293 2.34l-0.08 0.757L555 550z" fill="#007AFF" p-id="15050"></path></svg>