<?xml version="1.0" standalone="no"?><!DOCTYPE svg PUBLIC "-//W3C//DTD SVG 1.1//EN" "http://www.w3.org/Graphics/SVG/1.1/DTD/svg11.dtd"><svg t="1710140345496" class="icon" viewBox="0 0 1024 1024" version="1.1" xmlns="http://www.w3.org/2000/svg" p-id="11252" xmlns:xlink="http://www.w3.org/1999/xlink" width="200" height="200"><path d="M912.128 523.488c0.096-3.168 0.512-6.208 0.512-9.408 0-32.352-4.128-63.68-11.328-93.92 0.544 27.328 2.72 49.248 6.336 65.536 1.664 8.352 3.136 21.056 4.48 37.792z" p-id="11253" fill="#ff6619"></path><path d="M923.136 683.136c-2.496-10.304-4.992-41.376-7.168-93.632a1694.848 1694.848 0 0 0-3.84-66.016 351.168 351.168 0 0 0-4.512-37.792c-3.648-16.32-5.888-38.208-6.368-65.536-0.224-10.432-0.224-21.568 0.064-33.632 0.736-43.584 3.808-70.56 8.8-80.8 3.488-8.128 5.12-14.272 5.12-18.368s-2.144-10.24-6.304-18.432c-6.016-13.696-11.36-20.48-16.064-20.48-4.672 0-10.464-2.24-17.44-6.656-6.816-4.416-20.256-4.256-39.808 0.512-8 1.984-14.944 4.672-21.312 7.84a67.84 67.84 0 0 0-22.944 17.728c-9.92 12.288-14.816 19.776-14.56 22.336 0 8.896-14.08 27.328-42.368 55.264-17.12 17.088-27.904 28.32-32.096 33.76-18.976 23.904-44.896 50.432-78.528 79.744-33.376 29.344-58.208 47.424-74.496 54.336-9.376 4-16.256 2.88-20.576-3.648-4.224-6.368-5.344-10.304-3.168-11.712 2.048-1.344-1.216-14.144-9.696-38.336a873.152 873.152 0 0 1-23.104-77.184c-4.256-18.432-6.4-30.528-6.4-36.32 0-5.76 2.144-12.384 6.4-19.936 6.88-10.912 11.584-25.28 14.112-43.008 0.832-12.288 0.672-20.256-0.672-23.968-1.28-3.808-4.512-6.368-9.6-7.744-11.168-2.656-31.968 3.584-62.304 18.912-30.464 15.232-49.024 29.088-55.936 41.376-5.12 8.16-16.256 21.888-33.344 40.928a2404.064 2404.064 0 0 0-133.696 155.424c-33.664 41.792-65.76 75.104-96.576 100.896-2.912 2.432-5.856 5.248-8.832 7.488-13.696 10.944-21.568 18.752-23.712 23.584-2.144 4.704-2.4 15.52-0.64 32.608 0.8 23.296 3.392 41.984 7.68 56.384 4.288 14.304 5.568 22.688 3.84 24.992-1.76 2.432 0 12.48 5.12 30.176 8.608 30.016 27.872 43.584 57.824 40.768 8.576-0.672 15.232-2.56 20-5.536 4.672-3.232 9.984-9.44 16-18.944 3.68-6.176 7.872-12.896 12.032-19.808 6.56-10.816 13.568-22.176 21.376-34.944 12.896-20.768 23.392-39.328 31.52-55.744 8.192-16.32 14.016-24.48 17.44-24.48 3.36 0 5.152-2.592 5.152-8.224 0-5.28 4.48-11.904 13.44-19.264 9.056-7.584 13.536-14.336 13.536-20.64 0-6.016 1.92-10.112 5.664-11.744 3.872-1.696 7.104-7.136 9.632-16.352 2.56-9.184 9.632-20.96 21.216-35.232 11.616-14.304 17.376-25.568 17.376-33.344 0-7.84 1.632-12.736 5.12-14.816 3.36-2.048 5.152-6.976 5.152-14.848 0-7.84 4.448-15.296 13.472-22.464 8.96-7.104 13.44-14.304 13.44-21.44 0-7.168 1.952-10.72 5.824-10.72 3.808 0 7.04-4.064 9.568-12.224v-2.08c2.624-5.44 5.12-7.168 7.712-5.12 3.488 2.72 7.488 21.44 12.224 56.256 4.672 34.688 5.728 54.88 3.2 60.224-2.624 6.336 0.192 19.808 8.352 40.512 8.064 20.864 15.584 32.672 22.496 35.328 5.92 2.72 8.96 8.96 8.96 18.912 0 9.92 8.48 22.016 25.632 36.352l25.888 21.376 23.136-8.192c15.488-6.016 25.088-13.888 28.864-22.912 4-9.28 13.568-19.84 28.928-32.256 15.52-12.352 26.464-23.328 32.736-33.312 6.528-9.856 21.248-26.144 44.448-48.544 23.008-22.624 34.944-37.536 35.808-45.088 0.96-6.08 9.28-22.08 25.248-48.032 15.648-25.856 27.488-42.272 35.328-49.088 5.92-5.408 6.624-9.28 1.92-11.712-4.768-2.432-7.104-1.216-7.104 3.552 0 2.72-2.624 6.784-7.68 12.288a82.56 82.56 0 0 1-16.672 13.824c-6.016 3.776-9.952 4.96-11.488 3.552-1.888-1.344 6.624-12.64 25.728-33.76 4.032-6.112 8.544-11.552 13.28-16.384 4.736-4.672 8.512-8.288 10.976-10.688 2.432-2.336 4.16-3.552 5.024-3.552 1.76 2.016 2.112 31.008 1.28 86.848-0.768 56-2.528 94.432-4.992 115.68-2.656 24.48-5.664 39.36-9.088 44.8-3.488 5.44-3.488 9.824 0 12.8 3.424 3.072 8.512 14.016 15.424 32.672 6.816 18.816 10.176 31.04 10.176 36.384 0 6.176 2.752 11.232 8.384 15.328 5.568 4.128 6.688 6.208 3.328 6.208-2.56 0-1.696 4.224 3.136 12.672 4.448 8.064 10.24 16.256 17.184 24.736 0.544 0.672 0.928 1.344 1.504 2.016 7.616 9.184 13.248 14.048 16.672 14.752 21.312 6.88 40.384 3.136 56.512-11.328 7.68-7.36 12.128-15.488 13.504-24.384 1.344-8.672-0.768-22.688-5.824-41.728zM953.28 515.808c4.096 60.544 9.632 142.048 13.728 201.344a494.912 494.912 0 0 0 43.68-203.072 494.08 494.08 0 0 0-49.28-214.656c0.48 4.32 1.28 8.576 1.28 13.024 0 7.328-10.88 72.864-12.256 79.776l-2.816 40.896 1.696 24.48c2.4 18.56 4.032 37.312 4.032 56.512l-0.064 1.696zM513.664 953.824c-112.768 0-215.232-42.88-293.056-112.608-16.16 9.504-33.952 15.456-53.12 15.456-5.12 0-9.984-1.12-14.944-1.92 90.624 96 218.688 156.288 361.12 156.288 154.784 0 292.992-70.784 384.096-181.664l-26.848-3.968-27.904-20.8c-80.512 91.296-198.08 149.216-329.344 149.216z" p-id="11254" fill="#ff6619"></path><path d="M513.664 74.368c123.808 0 235.424 51.328 315.328 133.664a108.48 108.48 0 0 1 25.792-3.392c23.328 0 44.832 7.648 62.496 20.256C827.136 99.264 680.16 17.088 513.664 17.088 239.168 17.088 16.672 239.616 16.672 514.08c0 57.632 10.272 112.672 28.288 164.032 0.608-3.776 1.472-7.424 2.304-11.2 2.176-31.36 14.336-60 32.576-84.416a439.04 439.04 0 0 1-5.856-68.48C73.952 271.232 270.816 74.368 513.664 74.368zM953.344 514.048c0-19.2-1.632-37.952-4.032-56.512l3.968 58.24 0.064-1.728z" p-id="11255" fill="#ff6619"></path></svg>